<svg xmlns="http://www.w3.org/2000/svg" xmlns:xlink="http://www.w3.org/1999/xlink"><symbol id="sprite-inovnation" viewBox="0 0 137 14"><title>Group 22</title><defs><path id="a" d="M.141.144h8.536v12.134H.141z"/><path id="c" d="M.2.144h8.537v12.134H.2z"/></defs><g fill="none" fill-rule="evenodd"><path fill="#000" d="M0 .374v1.824h1.506v10.043h1.858V.374zm17.809 0v8.285L12.888.374h-1.74V12.24h1.874V4.123l4.837 8.118h1.808V.374z"/><g transform="translate(26.79 .08)"><mask id="b" fill="#fff"><use xmlns:xlink="http://www.w3.org/1999/xlink" xlink:href="#a"/></mask><path d="M6.803 8.06c0 .135-.017.268-.034.402L3.137 2.336a2.359 2.359 0 011.272-.368 2.383 2.383 0 012.394 2.394V8.06zm-2.394 2.394c-1.322 0-2.393-.937-2.393-2.393v-3.7c0-.116.017-.25.033-.367l3.632 6.125a2.488 2.488 0 01-1.272.335zm0-10.31C1.982.144.141 2.136.141 4.412V8.01c0 2.31 1.858 4.268 4.268 4.268 2.41 0 4.268-1.958 4.268-4.268V4.412c0-2.276-1.84-4.268-4.268-4.268z" fill="#000" mask="url(#b)"/></g><path fill="#000" d="M14.15.295h1.959l2.862 8.787L21.833.295h1.958L19.858 12.16h-1.774zm16.135 0h1.741l4.92 8.285V.295h1.859V12.16h-1.808L32.16 4.044v8.117h-1.875zm18.612 0h1.775l3.933 11.866h-1.958l-2.862-8.787-2.863 8.787h-1.958zM62.94 2.119h-3.33V.295h8.519v1.824h-3.314v10.042H62.94zm12.921 0h-1.506V.295h3.364V12.16h-1.858z" transform="translate(26.79 .08)"/><g transform="translate(111.623 .08)"><mask id="d" fill="#fff"><use xlink:href="#c"/></mask><path d="M6.862 8.06c0 .135-.017.268-.034.402L3.196 2.336a2.359 2.359 0 011.272-.368 2.383 2.383 0 012.394 2.394V8.06zm-2.394 2.394c-1.322 0-2.393-.937-2.393-2.393v-3.7c0-.116.017-.25.034-.367l3.631 6.125a2.488 2.488 0 01-1.272.335zm0-10.31C2.042.144.2 2.136.2 4.412V8.01c0 2.31 1.858 4.268 4.268 4.268A4.265 4.265 0 008.737 8.01V4.412c0-2.276-1.842-4.268-4.269-4.268z" fill="#000" mask="url(#d)"/></g><path fill="#000" d="M100.75.295h1.74l4.922 8.285V.295h1.874V12.16h-1.824l-4.838-8.117v8.117h-1.874z" transform="translate(26.79 .08)"/></g></symbol><symbol fill="none" id="sprite-logo" viewBox="0 0 147 14"><title>logo</title><path fill="currentColor" fill-rule="evenodd" clip-rule="evenodd" d="M10.263 0H8.495L4.593 6.612l4.075 6.997h1.769L6.362 6.612 10.263 0zM0 13.609h1.538V0H0v13.61zM23.621 0l-5.9 13.609h1.691l4.823-11.562 4.787 11.562h1.73L24.947 0h-1.326zm17.895 0h-1.538v13.61h7.823v-1.384h-6.285V0zm17.126 7.304h6.88V5.978h-6.88V1.365h7.285V0h-8.823v13.608h8.919v-1.383h-7.38v-4.92zM92.317 0h-3.96v13.61h3.96c3.787 0 7.572-2.134 7.572-6.805C99.89 2.018 96.104 0 92.317 0m-.135 12.244h-2.287V1.346h2.287c3.498 0 6.132 1.806 6.132 5.458 0 3.576-2.634 5.44-6.132 5.44m-16.204 1.365h1.538V0h-1.538v13.61zM143.731.154h.404v1.057h.173V.154h.365V0h-.942v.154zM145.942 0l-.366.98-.403-.98h-.231v1.211h.174v-.96l.384.96h.154l.346-.96v.96h.172V.001h-.23zm-4.42 1.346V0h-9.476v1.365h7.638l-7.926 10.918v1.325h9.822v-1.383h-7.984l7.926-10.88zM112.21 0l-3.901 6.612 4.074 6.997h7.208l4.075-6.997L119.764 0h-7.554zm6.497 12.301h-5.441l-3.302-5.7 3.141-5.293h5.764L122.01 6.6l-3.303 5.7z"/></symbol></svg>